# Wavefront OBJ file automatically generated by Tiled2Unity

# Vertices (Count = 112)
v -12 -5 0
v -13 -5 0
v -13 -4 0
v -12 -4 0
v -11 -5 0
v -11 -4 0
v -10 -5 0
v -10 -4 0
v -9 -5 0
v -9 -4 0
v -8 -5 0
v -8 -4 0
v -7 -5 0
v -7 -4 0
v -6 -5 0
v -6 -4 0
v -5 -5 0
v -5 -4 0
v -12 -6 0
v -13 -6 0
v -11 -6 0
v -10 -6 0
v -9 -6 0
v -8 -6 0
v -7 -6 0
v -6 -6 0
v -5 -6 0
v -12 -7 0
v -13 -7 0
v -11 -7 0
v -10 -7 0
v -9 -7 0
v -8 -7 0
v -7 -7 0
v -6 -7 0
v -5 -7 0
v -12 -8 0
v -13 -8 0
v -11 -8 0
v -10 -8 0
v -9 -8 0
v -8 -8 0
v -7 -8 0
v -6 -8 0
v -5 -8 0
v -12 -9 0
v -13 -9 0
v -11 -9 0
v -10 -9 0
v -9 -9 0
v -8 -9 0
v -7 -9 0
v -6 -9 0
v -5 -9 0
v -9 -10 0
v -10 -10 0
v -13 -1 0
v -14 -1 0
v -14 0 0
v -13 0 0
v -12 -1 0
v -12 0 0
v -11 -1 0
v -11 0 0
v -10 -1 0
v -10 0 0
v -9 -1 0
v -9 0 0
v -8 -1 0
v -8 0 0
v -7 -1 0
v -7 0 0
v -6 -1 0
v -6 0 0
v -5 -1 0
v -5 0 0
v -4 -1 0
v -4 0 0
v -13 -2 0
v -14 -2 0
v -12 -2 0
v -11 -2 0
v -10 -2 0
v -9 -2 0
v -8 -2 0
v -7 -2 0
v -6 -2 0
v -5 -2 0
v -4 -2 0
v -13 -3 0
v -14 -3 0
v -12 -3 0
v -11 -3 0
v -10 -3 0
v -9 -3 0
v -8 -3 0
v -7 -3 0
v -6 -3 0
v -5 -3 0
v -4 -3 0
v -14 -4 0
v -4 -4 0
v -14 -5 0
v -4 -5 0
v -14 -6 0
v -4 -6 0
v -14 -7 0
v -4 -7 0
v -14 -8 0
v -4 -8 0
v -14 -9 0
v -4 -9 0

# Texture cooridinates (Count = 120)
vt 0.1404979 0.8726273
vt 0.1570228 0.8726273
vt 0.1570228 0.9030381
vt 0.1404979 0.9030381
vt 0.1404979 0.9049467
vt 0.1570228 0.9049467
vt 0.1570228 0.9353575
vt 0.1404979 0.9353575
vt 0.2985557 0.5817528
vt 0.3150806 0.5817528
vt 0.3150806 0.6121635
vt 0.2985557 0.6121635
vt 0.2458698 0.5817528
vt 0.2623947 0.5817528
vt 0.2623947 0.6121635
vt 0.2458698 0.6121635
vt 0.2809938 0.5817528
vt 0.2975186 0.5817528
vt 0.2975186 0.6121635
vt 0.2809938 0.6121635
vt 0.1229359 0.1616006
vt 0.1394608 0.1616006
vt 0.1394608 0.1920115
vt 0.1229359 0.1920115
vt 0.1229359 0.1292813
vt 0.1394608 0.1292813
vt 0.1394608 0.1596921
vt 0.1229359 0.1596921
vt 0.1229359 0.09696192
vt 0.1394608 0.09696192
vt 0.1394608 0.1273727
vt 0.1229359 0.1273727
vt 0.3161177 0.2908782
vt 0.3326426 0.2908782
vt 0.3326426 0.3212891
vt 0.3161177 0.3212891
vt 0.3161177 0.2585589
vt 0.3326426 0.2585589
vt 0.3326426 0.2889697
vt 0.3161177 0.2889697
vt 0.3161177 0.2262394
vt 0.3326426 0.2262394
vt 0.3326426 0.2566503
vt 0.3161177 0.2566503
vt 0.2107458 0.7433497
vt 0.2272707 0.7433497
vt 0.2272707 0.7737606
vt 0.2107458 0.7737606
vt 0.1931838 0.7433497
vt 0.2097087 0.7433497
vt 0.2097087 0.7737606
vt 0.1931838 0.7737606
vt 0.1756219 0.7433497
vt 0.1921467 0.7433497
vt 0.1921467 0.7737606
vt 0.1756219 0.7737606
vt 0.2107458 0.7110304
vt 0.2272707 0.7110304
vt 0.2272707 0.7414411
vt 0.2107458 0.7414411
vt 0.1931838 0.7110304
vt 0.2097087 0.7110304
vt 0.2097087 0.7414411
vt 0.1931838 0.7414411
vt 0.1756219 0.7110304
vt 0.1921467 0.7110304
vt 0.1921467 0.7414411
vt 0.1756219 0.7414411
vt 0.2107458 0.6787109
vt 0.2272707 0.6787109
vt 0.2272707 0.7091218
vt 0.2107458 0.7091218
vt 0.1931838 0.6787109
vt 0.2097087 0.6787109
vt 0.2097087 0.7091218
vt 0.1931838 0.7091218
vt 0.1756219 0.6787109
vt 0.1921467 0.6787109
vt 0.1921467 0.7091218
vt 0.1756219 0.7091218
vt 0.2107458 0.7756691
vt 0.2272707 0.7756691
vt 0.2272707 0.8060799
vt 0.2107458 0.8060799
vt 0.2107458 0.8079885
vt 0.2272707 0.8079885
vt 0.2272707 0.8383994
vt 0.2107458 0.8383994
vt 0.2458698 0.9372661
vt 0.2623947 0.9372661
vt 0.2623947 0.9676769
vt 0.2458698 0.9676769
vt 0.5092995 0.9695855
vt 0.5258244 0.9695855
vt 0.5258244 0.9999963
vt 0.5092995 0.9999963
vt 0.1931838 0.7756691
vt 0.2097087 0.7756691
vt 0.2097087 0.8060799
vt 0.1931838 0.8060799
vt 0.1931838 0.8079885
vt 0.2097087 0.8079885
vt 0.2097087 0.8383994
vt 0.1931838 0.8383994
vt 0.3863657 0.8403079
vt 0.4028905 0.8403079
vt 0.4028905 0.8707187
vt 0.3863657 0.8707187
vt 0.3512417 0.7756691
vt 0.3677666 0.7756691
vt 0.3677666 0.8060799
vt 0.3512417 0.8060799
vt 0.3336797 0.7756691
vt 0.3502046 0.7756691
vt 0.3502046 0.8060799
vt 0.3336797 0.8060799
vt 0.3688037 0.8403079
vt 0.3853286 0.8403079
vt 0.3853286 0.8707187
vt 0.3688037 0.8707187

# Normal
vn 0 0 -1

# Groups (Count = 4)

g mesh_0001
f 1/1/1 2/2/1 3/3/1 4/4/1
f 5/1/1 1/2/1 4/3/1 6/4/1
f 7/1/1 5/2/1 6/3/1 8/4/1
f 9/1/1 7/2/1 8/3/1 10/4/1
f 11/1/1 9/2/1 10/3/1 12/4/1
f 13/1/1 11/2/1 12/3/1 14/4/1
f 15/1/1 13/2/1 14/3/1 16/4/1
f 17/1/1 15/2/1 16/3/1 18/4/1
f 19/1/1 20/2/1 2/3/1 1/4/1
f 21/1/1 19/2/1 1/3/1 5/4/1
f 22/1/1 21/2/1 5/3/1 7/4/1
f 23/1/1 22/2/1 7/3/1 9/4/1
f 24/1/1 23/2/1 9/3/1 11/4/1
f 25/1/1 24/2/1 11/3/1 13/4/1
f 26/1/1 25/2/1 13/3/1 15/4/1
f 27/1/1 26/2/1 15/3/1 17/4/1
f 28/1/1 29/2/1 20/3/1 19/4/1
f 30/1/1 28/2/1 19/3/1 21/4/1
f 31/1/1 30/2/1 21/3/1 22/4/1
f 32/1/1 31/2/1 22/3/1 23/4/1
f 33/1/1 32/2/1 23/3/1 24/4/1
f 34/1/1 33/2/1 24/3/1 25/4/1
f 35/1/1 34/2/1 25/3/1 26/4/1
f 36/1/1 35/2/1 26/3/1 27/4/1
f 37/1/1 38/2/1 29/3/1 28/4/1
f 39/1/1 37/2/1 28/3/1 30/4/1
f 40/1/1 39/2/1 30/3/1 31/4/1
f 41/1/1 40/2/1 31/3/1 32/4/1
f 42/1/1 41/2/1 32/3/1 33/4/1
f 43/1/1 42/2/1 33/3/1 34/4/1
f 44/1/1 43/2/1 34/3/1 35/4/1
f 45/1/1 44/2/1 35/3/1 36/4/1
f 46/1/1 47/2/1 38/3/1 37/4/1
f 48/1/1 46/2/1 37/3/1 39/4/1
f 49/1/1 48/2/1 39/3/1 40/4/1
f 50/1/1 49/2/1 40/3/1 41/4/1
f 51/1/1 50/2/1 41/3/1 42/4/1
f 52/1/1 51/2/1 42/3/1 43/4/1
f 53/1/1 52/2/1 43/3/1 44/4/1
f 54/1/1 53/2/1 44/3/1 45/4/1
f 55/5/1 56/6/1 49/7/1 50/8/1

g mesh_0002
f 57/9/1 58/10/1 59/11/1 60/12/1
f 61/13/1 57/14/1 60/15/1 62/16/1
f 63/13/1 61/14/1 62/15/1 64/16/1
f 65/13/1 63/14/1 64/15/1 66/16/1
f 67/13/1 65/14/1 66/15/1 68/16/1
f 69/13/1 67/14/1 68/15/1 70/16/1
f 71/13/1 69/14/1 70/15/1 72/16/1
f 73/13/1 71/14/1 72/15/1 74/16/1
f 75/13/1 73/14/1 74/15/1 76/16/1
f 77/17/1 75/18/1 76/19/1 78/20/1
f 79/14/1 80/15/1 58/16/1 57/13/1
f 81/21/1 79/22/1 57/23/1 61/24/1
f 82/21/1 81/22/1 61/23/1 63/24/1
f 83/21/1 82/22/1 63/23/1 65/24/1
f 84/21/1 83/22/1 65/23/1 67/24/1
f 85/21/1 84/22/1 67/23/1 69/24/1
f 86/21/1 85/22/1 69/23/1 71/24/1
f 87/21/1 86/22/1 71/23/1 73/24/1
f 88/21/1 87/22/1 73/23/1 75/24/1
f 89/14/1 88/15/1 75/16/1 77/13/1
f 90/14/1 91/15/1 80/16/1 79/13/1
f 92/25/1 90/26/1 79/27/1 81/28/1
f 93/25/1 92/26/1 81/27/1 82/28/1
f 94/25/1 93/26/1 82/27/1 83/28/1
f 95/25/1 94/26/1 83/27/1 84/28/1
f 96/25/1 95/26/1 84/27/1 85/28/1
f 97/25/1 96/26/1 85/27/1 86/28/1
f 98/25/1 97/26/1 86/27/1 87/28/1
f 99/25/1 98/26/1 87/27/1 88/28/1
f 100/14/1 99/15/1 88/16/1 89/13/1
f 3/14/1 101/15/1 91/16/1 90/13/1
f 4/29/1 3/30/1 90/31/1 92/32/1
f 6/29/1 4/30/1 92/31/1 93/32/1
f 8/29/1 6/30/1 93/31/1 94/32/1
f 10/29/1 8/30/1 94/31/1 95/32/1
f 12/29/1 10/30/1 95/31/1 96/32/1
f 14/29/1 12/30/1 96/31/1 97/32/1
f 16/29/1 14/30/1 97/31/1 98/32/1
f 18/29/1 16/30/1 98/31/1 99/32/1
f 102/14/1 18/15/1 99/16/1 100/13/1
f 2/14/1 103/15/1 101/16/1 3/13/1
f 104/14/1 17/15/1 18/16/1 102/13/1
f 20/14/1 105/15/1 103/16/1 2/13/1
f 106/14/1 27/15/1 17/16/1 104/13/1
f 29/33/1 107/34/1 105/35/1 20/36/1
f 108/33/1 36/34/1 27/35/1 106/36/1
f 38/37/1 109/38/1 107/39/1 29/40/1
f 110/37/1 45/38/1 36/39/1 108/40/1
f 47/41/1 111/42/1 109/43/1 38/44/1
f 112/41/1 54/42/1 45/43/1 110/44/1

g mesh_0003
f 22/45/1 21/46/1 5/47/1 7/48/1
f 23/49/1 22/50/1 7/51/1 9/52/1
f 24/53/1 23/54/1 9/55/1 11/56/1
f 31/57/1 30/58/1 21/59/1 22/60/1
f 32/61/1 31/62/1 22/63/1 23/64/1
f 33/65/1 32/66/1 23/67/1 24/68/1
f 40/69/1 39/70/1 30/71/1 31/72/1
f 41/73/1 40/74/1 31/75/1 32/76/1
f 42/77/1 41/78/1 32/79/1 33/80/1

g mesh_0004
f 16/81/1 14/82/1 97/83/1 98/84/1
f 18/85/1 16/86/1 98/87/1 99/88/1
f 1/89/1 2/90/1 3/91/1 4/92/1
f 7/93/1 5/94/1 6/95/1 8/96/1
f 15/97/1 13/98/1 14/99/1 16/100/1
f 17/101/1 15/102/1 16/103/1 18/104/1
f 33/105/1 32/106/1 23/107/1 24/108/1
f 34/109/1 33/110/1 24/111/1 25/112/1
f 35/113/1 34/114/1 25/115/1 26/116/1
f 36/117/1 35/118/1 26/119/1 27/120/1

